<mxfile host="app.diagrams.net" modified="2021-06-14T09:59:14.052Z" agent="5.0 (Windows NT 10.0; Win64; x64) AppleWebKit/537.36 (KHTML, like Gecko) Chrome/91.0.4472.77 Safari/537.36" etag="NHPdNz2cuNxrXBYpHIN7" version="14.7.7" type="github">
  <diagram id="1jXcaoj363pBoteQE9AP" name="Page-1">
    <mxGraphModel dx="855" dy="440" grid="1" gridSize="10" guides="1" tooltips="1" connect="1" arrows="1" fold="1" page="1" pageScale="1" pageWidth="827" pageHeight="1169" math="0" shadow="0">
      <root>
        <mxCell id="0" />
        <mxCell id="1" parent="0" />
        <mxCell id="rrE3-siqTYKYQTAb_aWv-10" style="edgeStyle=orthogonalEdgeStyle;rounded=0;orthogonalLoop=1;jettySize=auto;html=1;exitX=0.5;exitY=0.5;exitDx=0;exitDy=0;exitPerimeter=0;fontFamily=Helvetica;" parent="1" source="rrE3-siqTYKYQTAb_aWv-1" target="rrE3-siqTYKYQTAb_aWv-8" edge="1">
          <mxGeometry relative="1" as="geometry" />
        </mxCell>
        <mxCell id="rrE3-siqTYKYQTAb_aWv-1" value="&lt;font style=&quot;vertical-align: inherit&quot;&gt;&lt;font style=&quot;vertical-align: inherit&quot;&gt;Elève&lt;/font&gt;&lt;/font&gt;" style="shape=umlActor;verticalLabelPosition=bottom;verticalAlign=top;html=1;outlineConnect=0;" parent="1" vertex="1">
          <mxGeometry x="70" y="150" width="30" height="60" as="geometry" />
        </mxCell>
        <mxCell id="rrE3-siqTYKYQTAb_aWv-2" value="system" style="swimlane;startSize=0;fontFamily=Helvetica;" parent="1" vertex="1">
          <mxGeometry x="310" y="20" width="320" height="400" as="geometry" />
        </mxCell>
        <mxCell id="rrE3-siqTYKYQTAb_aWv-3" value="&lt;font style=&quot;vertical-align: inherit&quot;&gt;&lt;font style=&quot;vertical-align: inherit&quot;&gt;inscription&lt;/font&gt;&lt;/font&gt;" style="ellipse;whiteSpace=wrap;html=1;" parent="rrE3-siqTYKYQTAb_aWv-2" vertex="1">
          <mxGeometry x="100" y="40" width="120" height="80" as="geometry" />
        </mxCell>
        <mxCell id="rrE3-siqTYKYQTAb_aWv-5" value="&lt;font style=&quot;vertical-align: inherit&quot;&gt;&lt;font style=&quot;vertical-align: inherit&quot;&gt;réinitialisation mot de passe&lt;/font&gt;&lt;/font&gt;" style="ellipse;whiteSpace=wrap;html=1;fontFamily=Helvetica;" parent="rrE3-siqTYKYQTAb_aWv-2" vertex="1">
          <mxGeometry x="100" y="300" width="120" height="80" as="geometry" />
        </mxCell>
        <mxCell id="rrE3-siqTYKYQTAb_aWv-4" value="&lt;font style=&quot;vertical-align: inherit&quot;&gt;&lt;font style=&quot;vertical-align: inherit&quot;&gt;connexion&lt;/font&gt;&lt;/font&gt;" style="ellipse;whiteSpace=wrap;html=1;fontFamily=Helvetica;" parent="rrE3-siqTYKYQTAb_aWv-2" vertex="1">
          <mxGeometry x="100" y="170" width="120" height="80" as="geometry" />
        </mxCell>
        <mxCell id="rrE3-siqTYKYQTAb_aWv-11" style="edgeStyle=orthogonalEdgeStyle;rounded=0;orthogonalLoop=1;jettySize=auto;html=1;fontFamily=Helvetica;" parent="1" source="rrE3-siqTYKYQTAb_aWv-6" target="rrE3-siqTYKYQTAb_aWv-8" edge="1">
          <mxGeometry relative="1" as="geometry" />
        </mxCell>
        <mxCell id="rrE3-siqTYKYQTAb_aWv-6" value="&lt;font style=&quot;vertical-align: inherit&quot;&gt;&lt;font style=&quot;vertical-align: inherit&quot;&gt;Bénévole&lt;/font&gt;&lt;/font&gt;" style="shape=umlActor;verticalLabelPosition=bottom;verticalAlign=top;html=1;outlineConnect=0;fontFamily=Helvetica;" parent="1" vertex="1">
          <mxGeometry x="70" y="260" width="30" height="60" as="geometry" />
        </mxCell>
        <mxCell id="rrE3-siqTYKYQTAb_aWv-8" value="&lt;font style=&quot;vertical-align: inherit&quot;&gt;&lt;font style=&quot;vertical-align: inherit&quot;&gt;User&lt;/font&gt;&lt;/font&gt;" style="shape=umlActor;verticalLabelPosition=bottom;verticalAlign=top;html=1;outlineConnect=0;fontFamily=Helvetica;" parent="1" vertex="1">
          <mxGeometry x="180" y="200" width="30" height="60" as="geometry" />
        </mxCell>
        <mxCell id="rrE3-siqTYKYQTAb_aWv-13" value="" style="endArrow=none;html=1;fontFamily=Helvetica;exitX=0.5;exitY=0.5;exitDx=0;exitDy=0;exitPerimeter=0;" parent="1" source="rrE3-siqTYKYQTAb_aWv-8" target="rrE3-siqTYKYQTAb_aWv-4" edge="1">
          <mxGeometry width="50" height="50" relative="1" as="geometry">
            <mxPoint x="250" y="220" as="sourcePoint" />
            <mxPoint x="390" y="200" as="targetPoint" />
          </mxGeometry>
        </mxCell>
        <mxCell id="rrE3-siqTYKYQTAb_aWv-14" value="" style="endArrow=none;html=1;fontFamily=Helvetica;entryX=0;entryY=0.5;entryDx=0;entryDy=0;exitX=0.5;exitY=0.5;exitDx=0;exitDy=0;exitPerimeter=0;" parent="1" source="rrE3-siqTYKYQTAb_aWv-8" target="rrE3-siqTYKYQTAb_aWv-3" edge="1">
          <mxGeometry width="50" height="50" relative="1" as="geometry">
            <mxPoint x="210" y="200" as="sourcePoint" />
            <mxPoint x="440" y="200" as="targetPoint" />
          </mxGeometry>
        </mxCell>
        <mxCell id="rrE3-siqTYKYQTAb_aWv-15" value="" style="endArrow=none;html=1;fontFamily=Helvetica;exitX=0;exitY=0.5;exitDx=0;exitDy=0;entryX=0.5;entryY=0.5;entryDx=0;entryDy=0;entryPerimeter=0;" parent="1" source="rrE3-siqTYKYQTAb_aWv-5" target="rrE3-siqTYKYQTAb_aWv-8" edge="1">
          <mxGeometry width="50" height="50" relative="1" as="geometry">
            <mxPoint x="390" y="250" as="sourcePoint" />
            <mxPoint x="440" y="200" as="targetPoint" />
          </mxGeometry>
        </mxCell>
      </root>
    </mxGraphModel>
  </diagram>
</mxfile>
